HIERARCHY
ROOT pelvis
{
  OFFSET 0 100 0
  CHANNELS 6 Xposition Yposition Zposition Zrotation Xrotation Yrotation
  JOINT pelvis_right_femur
  {
    OFFSET -10.78128 -3.44521 -0.5502486
    CHANNELS 3 Zrotation Xrotation Yrotation
    JOINT right_femur_tibia
    {
      OFFSET -0.8047443 -44.0398 -0.1307829
      CHANNELS 3 Zrotation Xrotation Yrotation
      JOINT right_tibia_foot
      {
        OFFSET 3.006224 -47.83518 -5
        CHANNELS 3 Zrotation Xrotation Yrotation
        End Site
        {
          OFFSET 0 -5 15
        }
      }
    }
  }
  JOINT pelvis_left_femur
  {
    OFFSET 10.78128 -3.44521 -0.5502486
    CHANNELS 3 Zrotation Xrotation Yrotation
    JOINT left_femur_tibia
    {
      OFFSET 0.8047443 -44.0398 -0.1307829
      CHANNELS 3 Zrotation Xrotation Yrotation
      JOINT left_tibia_foot
      {
        OFFSET -4.370144 -48.10324 -4.275266
        CHANNELS 3 Zrotation Xrotation Yrotation
        End Site
        {
          OFFSET 0 -5 15
        }
      }
    }
  }
  JOINT pelvis_spine1
  {
    OFFSET 0 6.468898 -3.129235
    CHANNELS 3 Zrotation Xrotation Yrotation
    JOINT spine1
    {
      OFFSET 0 23.15396 4.99043
      CHANNELS 3 Zrotation Xrotation Yrotation
      JOINT spine2
      {
        OFFSET 0 20.79997 -5.064912
        CHANNELS 3 Zrotation Xrotation Yrotation
        JOINT neck
        {
          OFFSET 0 14.38658 9.616178
          CHANNELS 3 Zrotation Xrotation Yrotation
          End Site
          {
            OFFSET 0 20 0
          }
        }
      }
      JOINT right_manubrium
      {
        OFFSET -5.722621 16.35077 3.967754
        CHANNELS 3 Zrotation Xrotation Yrotation
        JOINT right_clavicle
        {
          OFFSET -13.16364 1.694482 -4.693211
          CHANNELS 3 Zrotation Xrotation Yrotation
          JOINT right_humerus
          {
            OFFSET -28.5034 -0.3100689 -2.792744
            CHANNELS 3 Zrotation Xrotation Yrotation
            JOINT right_radius
            {
              OFFSET -25.15693 0.02248979 -1.271978
              CHANNELS 3 Zrotation Xrotation Yrotation
              End Site
              {
                OFFSET -15 0 0
              }
            }
          }
        }
      }
      JOINT left_manubrium
      {
        OFFSET 5.722621 16.35077 3.967754
        CHANNELS 3 Zrotation Xrotation Yrotation
        JOINT left_clavicle
        {
          OFFSET 13.16364 1.694482 -4.693211
          CHANNELS 3 Zrotation Xrotation Yrotation
          JOINT left_humerus
          {
            OFFSET 29.39168 -1.063119 -2.237045
            CHANNELS 3 Zrotation Xrotation Yrotation
            JOINT left_radius
            {
              OFFSET 24.59957 -0.9528479 0.9047498
              CHANNELS 3 Zrotation Xrotation Yrotation
              End Site
              {
                OFFSET 15 -0 -0
              }
            }
          }
        }
      }
    }
  }
}
MOTION
Frames: 17
Frame Time: 0.0416666666667
212.9566 42.95047 861.1239 8.641504 -10.13244 30.44889 -1.362726 1.705847 5.898949 -0 49.67091 -0 16.54748 -10.57821 -9.602546 -4.118823 -3.129705 -9.14106 -0 29.68575 -0 -12.45379 -12.14803 16.22301 -1.241572 1.403287 6.497715 -3.363427 7.961421 -1.444368 4.275524 23.41149 7.572642 -0.2164522 -10.26232 13.79 2.101953 -14.53946 9.573464 84.2886 24.67926 -9.098967 -0 0 20.48355 -35.93298 26.85009 14.90379 4.978093 -12.70391 -4.461086 -86.9708 21.00474 15.1073 0 0 -12.73607 -2.486419 10.03247 14.84431
217.167 43.07184 866.499 8.829643 -9.969306 31.52694 -1.362732 1.705799 5.898922 -0 49.67096 -0 16.54744 -10.57818 -9.602549 -4.118836 -3.129668 -9.141071 -0 29.68567 -0 -12.45377 -12.14805 16.22299 -1.241583 1.403285 6.497698 -3.363421 7.961413 -1.444382 4.275518 23.4115 7.572643 -0.2164502 -10.26233 13.78999 2.101958 -14.53945 9.573459 84.28861 24.6793 -9.098977 -0 0 20.48351 -35.93296 26.85007 14.90379 4.978093 -12.70392 -4.461078 -86.97078 21.00476 15.10727 0 0 -12.73608 -2.48642 10.03249 14.84431
221.4774 43.19322 871.7942 9.014545 -9.802727 32.60391 -1.362737 1.705727 5.898895 -0 49.67098 -0 16.5474 -10.57816 -9.602561 -4.118847 -3.129601 -9.14108 -0 29.68561 -0 -12.45375 -12.14808 16.22298 -1.241594 1.403285 6.497677 -3.363414 7.961406 -1.444396 4.275514 23.4115 7.572641 -0.2164504 -10.26233 13.78998 2.10196 -14.53943 9.573452 84.28862 24.67932 -9.098996 -0 0 20.48347 -35.93294 26.85006 14.90379 4.978097 -12.70393 -4.461072 -86.97076 21.00477 15.10721 0 0 -12.7361 -2.486412 10.0325 14.8443
225.8864 43.31459 877.0078 9.196153 -9.632761 33.67979 -1.362742 1.705638 5.898871 -0 49.67099 -0 16.54738 -10.57814 -9.602581 -4.118858 -3.129512 -9.141086 -0 29.68557 -0 -12.45375 -12.14811 16.22296 -1.241603 1.403287 6.497654 -3.363408 7.961399 -1.44441 4.275513 23.41151 7.572636 -0.2164527 -10.26232 13.78998 2.101959 -14.5394 9.573444 84.28864 24.67934 -9.099021 -0 0 20.48343 -35.93291 26.85005 14.90378 4.978106 -12.70394 -4.461069 -86.97072 21.00477 15.10714 0 0 -12.73612 -2.486395 10.0325 14.84427
230.3922 43.43596 882.1377 9.374407 -9.459473 34.75458 -1.362746 1.70554 5.898852 -0 49.67097 -0 16.54737 -10.57813 -9.602607 -4.118866 -3.12941 -9.141089 -0 29.68555 -0 -12.45374 -12.14813 16.22293 -1.241609 1.403291 6.497631 -3.363403 7.961393 -1.444421 4.275515 23.41151 7.572631 -0.2164567 -10.2623 13.78998 2.101955 -14.53937 9.573436 84.28867 24.67934 -9.099051 -0 0 20.48339 -35.93289 26.85004 14.90377 4.978118 -12.70395 -4.461069 -86.97067 21.00475 15.10705 0 0 -12.73614 -2.486371 10.0325 14.84423
234.9935 43.55733 887.1824 9.549253 -9.282926 35.82828 -1.362749 1.705442 5.898838 -0 49.67094 -0 16.54737 -10.57813 -9.602635 -4.11887 -3.129302 -9.141088 -0 29.68555 -0 -12.45375 -12.14815 16.22291 -1.241613 1.403297 6.49761 -3.363399 7.961388 -1.44443 4.275519 23.41152 7.572624 -0.2164622 -10.26227 13.78998 2.101948 -14.53934 9.573428 84.2887 24.67932 -9.099081 -0 0 20.48335 -35.93287 26.85004 14.90375 4.978132 -12.70396 -4.461071 -86.97063 21.00473 15.10695 0 0 -12.73616 -2.486343 10.0325 14.84418
239.6884 43.67869 892.1399 9.720635 -9.103183 36.9009 -1.362751 1.705351 5.89883 -0 49.67089 -0 16.54738 -10.57814 -9.602665 -4.118872 -3.129199 -9.141084 -0 29.68557 -0 -12.45376 -12.14817 16.2229 -1.241614 1.403303 6.497593 -3.363397 7.961385 -1.444436 4.275525 23.41152 7.572617 -0.2164684 -10.26224 13.78998 2.10194 -14.5393 9.573421 84.28873 24.6793 -9.09911 -0 0 20.48332 -35.93286 26.85004 14.90373 4.978147 -12.70397 -4.461075 -86.97058 21.00469 15.10686 0 0 -12.73618 -2.486314 10.03249 14.84412
244.4755 43.80005 897.0085 9.888497 -8.920309 37.97242 -1.362751 1.705275 5.89883 -0 49.67083 -0 16.5474 -10.57815 -9.602693 -4.118871 -3.129109 -9.141077 -0 29.68561 -0 -12.45378 -12.14818 16.22288 -1.241612 1.403309 6.497581 -3.363396 7.961384 -1.444439 4.275533 23.41152 7.57261 -0.216475 -10.26221 13.78998 2.10193 -14.53928 9.573416 84.28875 24.67927 -9.099136 -0 0 20.4833 -35.93286 26.85005 14.90371 4.978161 -12.70398 -4.461081 -86.97055 21.00465 15.10678 0 0 -12.7362 -2.486285 10.03248 14.84407
249.353 43.92141 901.7866 10.05279 -8.73437 39.04287 -1.36275 1.705219 5.898835 -0 49.67077 -0 16.54743 -10.57817 -9.602717 -4.118867 -3.129037 -9.141068 -0 29.68566 -0 -12.4538 -12.14818 16.22287 -1.241608 1.403316 6.497574 -3.363396 7.961385 -1.444438 4.275541 23.41152 7.572604 -0.2164812 -10.26218 13.78999 2.10192 -14.53925 9.573412 84.28877 24.67924 -9.099157 -0 0 20.4833 -35.93286 26.85005 14.90369 4.978174 -12.70399 -4.461089 -86.97052 21.00461 15.10672 0 0 -12.73621 -2.486259 10.03246 14.84402
254.3192 44.04276 906.4724 10.21345 -8.545433 40.11223 -1.362747 1.705186 5.898847 -0 49.67071 -0 16.54746 -10.5782 -9.602735 -4.118861 -3.128989 -9.141059 -0 29.68572 -0 -12.45382 -12.14818 16.22287 -1.241601 1.403321 6.497573 -3.363399 7.961387 -1.444434 4.275548 23.41152 7.572599 -0.2164867 -10.26215 13.78999 2.101911 -14.53924 9.573411 84.28879 24.6792 -9.09917 -0 0 20.4833 -35.93286 26.85007 14.90368 4.978184 -12.70399 -4.461096 -86.9705 21.00457 15.10668 0 0 -12.73622 -2.486238 10.03245 14.84398
259.3723 44.16412 911.0643 10.37045 -8.353564 41.18052 -1.362744 1.705177 5.898862 -0 49.67066 -0 16.5475 -10.57822 -9.602747 -4.118853 -3.128967 -9.141049 -0 29.68579 -0 -12.45384 -12.14818 16.22287 -1.241594 1.403326 6.497578 -3.363402 7.961391 -1.444427 4.275555 23.41152 7.572596 -0.216491 -10.26213 13.79 2.101904 -14.53923 9.573411 84.2888 24.67916 -9.099176 -0 0 20.48331 -35.93287 26.85008 14.90367 4.978191 -12.70399 -4.461104 -86.97049 21.00454 15.10666 0 0 -12.73623 -2.486223 10.03244 14.84395
264.5106 44.28547 915.5607 10.52372 -8.158832 42.24775 -1.36274 1.705193 5.898881 -0 49.67061 -0 16.54753 -10.57825 -9.602751 -4.118844 -3.128972 -9.141039 -0 29.68585 -0 -12.45386 -12.14816 16.22288 -1.241585 1.403329 6.497587 -3.363406 7.961396 -1.444418 4.275561 23.41151 7.572594 -0.2164939 -10.26212 13.79 2.101898 -14.53923 9.573413 84.2888 24.67913 -9.099175 -0 0 20.48333 -35.93288 26.85009 14.90366 4.978194 -12.70399 -4.461111 -86.97049 21.00451 15.10666 0 0 -12.73622 -2.486215 10.03242 14.84393
269.7323 44.40682 919.96 10.67323 -7.961307 43.31393 -1.362736 1.705229 5.8989 -0 49.67058 -0 16.54756 -10.57827 -9.602748 -4.118835 -3.129001 -9.141031 -0 29.6859 -0 -12.45387 -12.14815 16.22289 -1.241577 1.40333 6.4976 -3.36341 7.961401 -1.444408 4.275566 23.41151 7.572594 -0.2164952 -10.26211 13.79001 2.101894 -14.53924 9.573417 84.28879 24.67911 -9.099167 -0 0 20.48336 -35.9329 26.8501 14.90366 4.978194 -12.70398 -4.461117 -86.97051 21.00449 15.10669 0 0 -12.73622 -2.486215 10.03241 14.84393
275.0355 44.52818 924.2607 10.81892 -7.76106 44.37908 -1.362732 1.705283 5.898919 -0 49.67056 -0 16.54758 -10.57829 -9.602739 -4.118827 -3.129051 -9.141025 -0 29.68594 -0 -12.45388 -12.14813 16.2229 -1.24157 1.40333 6.497615 -3.363415 7.961407 -1.444398 4.275568 23.4115 7.572595 -0.2164949 -10.26211 13.79001 2.101893 -14.53926 9.573422 84.28878 24.67909 -9.099152 -0 0 20.48339 -35.93292 26.85011 14.90366 4.97819 -12.70397 -4.461121 -86.97053 21.00449 15.10673 0 0 -12.7362 -2.486222 10.03241 14.84394
280.4185 44.64954 928.4612 10.96076 -7.558161 45.44319 -1.362729 1.705348 5.898936 -0 49.67056 -0 16.5476 -10.5783 -9.602724 -4.118819 -3.129116 -9.141021 -0 29.68597 -0 -12.45389 -12.14811 16.22292 -1.241563 1.403328 6.497632 -3.363419 7.961412 -1.444388 4.275568 23.4115 7.572598 -0.2164931 -10.26212 13.79001 2.101894 -14.53928 9.573428 84.28876 24.67908 -9.099134 -0 0 20.48342 -35.93293 26.85012 14.90367 4.978184 -12.70396 -4.461123 -86.97056 21.00449 15.10678 0 0 -12.73619 -2.486235 10.0324 14.84396
285.8792 44.7709 932.56 11.0987 -7.352685 46.5063 -1.362726 1.705419 5.89895 -0 49.67058 -0 16.54761 -10.5783 -9.602705 -4.118814 -3.129191 -9.141019 -0 29.68599 -0 -12.45389 -12.14809 16.22293 -1.241559 1.403325 6.497648 -3.363423 7.961416 -1.44438 4.275567 23.4115 7.572603 -0.21649 -10.26213 13.79001 2.101897 -14.5393 9.573434 84.28875 24.67908 -9.099113 -0 0 20.48345 -35.93295 26.85012 14.90368 4.978175 -12.70396 -4.461123 -86.97059 21.0045 15.10685 0 0 -12.73617 -2.486252 10.0324 14.84399
291.4157 44.89226 936.5558 11.23271 -7.144704 47.56842 -1.362724 1.70549 5.89896 -0 49.6706 -0 16.54761 -10.5783 -9.602684 -4.118811 -3.129268 -9.14102 -0 29.68598 -0 -12.45388 -12.14808 16.22295 -1.241556 1.403321 6.497663 -3.363426 7.961419 -1.444374 4.275564 23.41149 7.572607 -0.2164861 -10.26215 13.79001 2.101902 -14.53932 9.573439 84.28872 24.67909 -9.099091 -0 0 20.48348 -35.93296 26.85013 14.90369 4.978164 -12.70395 -4.461121 -86.97062 21.00452 15.10692 0 0 -12.73616 -2.486273 10.0324 14.84403
